<svg width="19" height="22" viewBox="0 0 19 22" fill="none" xmlns="http://www.w3.org/2000/svg">
<path d="M9.42231 10.625C10.7789 10.625 11.9535 10.1384 12.9135 9.17834C13.8732 8.21853 14.3599 7.0441 14.3599 5.68734C14.3599 4.33097 13.8734 3.15643 12.9134 2.19625C11.9533 1.23655 10.7788 0.75 9.42231 0.75C8.06551 0.75 6.89104 1.23655 5.93122 2.19641C4.9714 3.15627 4.48465 4.33085 4.48465 5.68734C4.48465 7.0441 4.97136 8.21869 5.93126 9.17854C6.8914 10.1382 8.06603 10.625 9.42231 10.625ZM6.78081 3.04584C7.51729 2.30932 8.3813 1.95133 9.42231 1.95133C10.4632 1.95133 11.3273 2.30932 12.0639 3.04584C12.8005 3.78248 13.1586 4.6466 13.1586 5.6873C13.1586 6.72831 12.8005 7.59232 12.0639 8.32895C11.3273 9.06563 10.4632 9.42362 9.42231 9.42362C8.38158 9.42362 7.51765 9.06547 6.78081 8.32895C6.04413 7.59248 5.68598 6.72835 5.68598 5.68734C5.68598 4.6466 6.04413 3.78248 6.78081 3.04584ZM18.0618 16.5135C18.0341 16.1141 17.9782 15.6783 17.8957 15.2182C17.8125 14.7546 17.7054 14.3164 17.5771 13.9158C17.4445 13.5018 17.2645 13.093 17.0416 12.7012C16.8106 12.2945 16.5391 11.9404 16.2344 11.6491C15.9158 11.3443 15.5258 11.0992 15.0747 10.9204C14.6252 10.7426 14.127 10.6525 13.5942 10.6525C13.3849 10.6525 13.1825 10.7383 12.7917 10.9928C12.5139 11.1738 12.2352 11.3534 11.9557 11.5318C11.6872 11.7029 11.3234 11.8632 10.874 12.0083C10.4356 12.1502 9.99051 12.2222 9.551 12.2222C9.11185 12.2222 8.66669 12.1502 8.22799 12.0083C7.77915 11.8633 7.41519 11.703 7.14709 11.5319C6.83598 11.3331 6.55451 11.1517 6.31035 10.9926C5.91981 10.7382 5.71741 10.6523 5.50817 10.6523C4.97513 10.6523 4.47716 10.7425 4.0278 10.9206C3.57704 11.099 3.18682 11.3441 2.86791 11.6492C2.56325 11.9408 2.29174 12.2947 2.06088 12.7012C1.83834 13.093 1.65816 13.5016 1.52551 13.916C1.39739 14.3165 1.29028 14.7546 1.20708 15.2182C1.12448 15.6777 1.06867 16.1136 1.04096 16.514C1.01373 16.9054 1 17.3129 1 17.7245C1 18.7946 1.34017 19.6609 2.01099 20.2998C2.67352 20.9304 3.55001 21.25 4.61618 21.25H14.4871C15.5529 21.25 16.4294 20.9303 17.0921 20.2999C17.7631 19.6614 18.1033 18.7948 18.1033 17.7244C18.1031 17.3113 18.0892 16.9039 18.0618 16.5135ZM16.2638 19.4295C15.8261 19.8461 15.2448 20.0487 14.4869 20.0487H4.61622C3.85815 20.0487 3.27695 19.8461 2.83932 19.4297C2.41002 19.0209 2.20137 18.4631 2.20137 17.7245C2.20137 17.3404 2.21403 16.9611 2.23941 16.597C2.26408 16.2398 2.31461 15.8474 2.38956 15.4304C2.46351 15.0186 2.55764 14.6321 2.66963 14.2823C2.7771 13.9468 2.92364 13.6146 3.10538 13.2946C3.27883 12.9896 3.47838 12.7279 3.6986 12.5171C3.9046 12.3199 4.16425 12.1585 4.47015 12.0375C4.75307 11.9254 5.07106 11.8641 5.41624 11.8549C5.45828 11.8773 5.53323 11.92 5.65459 11.9991C5.90155 12.1601 6.18619 12.3437 6.5009 12.5446C6.85564 12.7708 7.31261 12.975 7.85862 13.1513C8.41681 13.3318 8.98613 13.4234 9.5512 13.4234C10.1163 13.4234 10.6857 13.3318 11.2437 13.1515C11.7901 12.9749 12.247 12.7708 12.6022 12.5443C12.9242 12.3385 13.2009 12.1602 13.4478 11.9991C13.5692 11.9201 13.6441 11.8773 13.6862 11.8549C14.0315 11.8641 14.3495 11.9254 14.6326 12.0374C14.9383 12.1585 15.198 12.32 15.404 12.5171C15.6242 12.7278 15.8237 12.9895 15.9972 13.2948C16.1791 13.6146 16.3258 13.947 16.4331 14.2821C16.5452 14.6325 16.6395 15.0188 16.7134 15.4302C16.7881 15.848 16.8388 16.2406 16.8635 16.5972C16.889 16.9599 16.9018 17.3393 16.902 17.7245C16.9018 18.4632 16.6931 19.021 16.2638 19.4295Z" fill="#828282" stroke="#828282" stroke-width="0.2"/>
</svg>
