<svg width="23" height="13" viewBox="0 0 23 13" fill="none" xmlns="http://www.w3.org/2000/svg">
<path d="M0 6.50098L22.1988 6.50098" stroke="white"/>
<path fill-rule="evenodd" clip-rule="evenodd" d="M16.8906 0.797033C17.0456 1.83527 17.5246 3.37885 18.475 4.66751C19.0203 5.40686 19.7289 6.07092 20.6227 6.49976C19.7289 6.92861 19.0203 7.59266 18.475 8.33201C17.5246 9.62068 17.0456 11.1642 16.8906 12.2025L17.8797 12.3501C18.0165 11.4337 18.4476 10.054 19.2798 8.92554C20.0709 7.8529 21.2003 7.03261 22.7878 6.99986C22.8565 7.00102 22.9258 7.00096 22.9959 6.99966L22.9866 6.49976L22.9959 5.99986C22.9258 5.99856 22.8565 5.99851 22.7878 5.99966C21.2003 5.96691 20.0709 5.14662 19.2798 4.07398C18.4476 2.94555 18.0165 1.56585 17.8797 0.649414L16.8906 0.797033Z" fill="white"/>
</svg>
