<svg width="20" height="22" viewBox="0 0 20 22" fill="none" xmlns="http://www.w3.org/2000/svg">
<g clip-path="url(#clip0_428_3587)">
<path d="M10 5.0625C9.32013 5.0625 8.65552 5.26411 8.09023 5.64182C7.52493 6.01954 7.08434 6.5564 6.82417 7.18453C6.56399 7.81265 6.49592 8.50381 6.62855 9.17062C6.76119 9.83743 7.08858 10.4499 7.56932 10.9307C8.05006 11.4114 8.66257 11.7388 9.32938 11.8714C9.99619 12.0041 10.6874 11.936 11.3155 11.6758C11.9436 11.4157 12.4805 10.9751 12.8582 10.4098C13.2359 9.84448 13.4375 9.17987 13.4375 8.5C13.4365 7.58862 13.074 6.71486 12.4296 6.07042C11.7851 5.42598 10.9114 5.06349 10 5.0625ZM10 11.3125C9.44374 11.3125 8.89997 11.1475 8.43746 10.8385C7.97495 10.5295 7.61446 10.0902 7.40159 9.5763C7.18872 9.06238 7.13302 8.49688 7.24154 7.95131C7.35006 7.40574 7.61793 6.9046 8.01126 6.51126C8.4046 6.11793 8.90574 5.85006 9.45131 5.74154C9.99688 5.63302 10.5624 5.68872 11.0763 5.90159C11.5902 6.11446 12.0295 6.47495 12.3385 6.93746C12.6476 7.39997 12.8125 7.94374 12.8125 8.5C12.8117 9.24567 12.5151 9.96056 11.9878 10.4878C11.4606 11.0151 10.7457 11.3117 10 11.3125Z" fill="#444444" stroke="black" stroke-width="0.4"/>
<path d="M10 1C8.01156 1.00223 6.1052 1.79313 4.69917 3.19917C3.29313 4.6052 2.50223 6.51156 2.5 8.5C2.5 13.8841 9.48656 20.6291 9.78406 20.9134C9.84221 20.969 9.91956 21 10 21C10.0804 21 10.1578 20.969 10.2159 20.9134C10.5134 20.6291 17.5 13.8841 17.5 8.5C17.4978 6.51156 16.7069 4.6052 15.3008 3.19917C13.8948 1.79313 11.9884 1.00223 10 1ZM10 20.2481C8.81063 19.055 3.125 13.1075 3.125 8.5C3.125 6.67664 3.84933 4.92795 5.13864 3.63864C6.42795 2.34933 8.17664 1.625 10 1.625C11.8234 1.625 13.572 2.34933 14.8614 3.63864C16.1507 4.92795 16.875 6.67664 16.875 8.5C16.875 13.1053 11.1894 19.0544 10 20.2481Z" fill="#444444" stroke="black" stroke-width="0.4"/>
</g>
<defs>
<clipPath id="clip0_428_3587">
<rect width="20" height="21" fill="white" transform="translate(0 0.5)"/>
</clipPath>
</defs>
</svg>
