<svg width="20" height="21" viewBox="0 0 20 21" fill="none" xmlns="http://www.w3.org/2000/svg">
<path d="M15.832 19.6668C17.5737 19.6668 18.7487 18.4418 19.0945 16.3002C19.1339 16.0238 19.1173 15.7423 19.0457 15.4725C18.9741 15.2026 18.849 14.9499 18.6779 14.7293L18.6112 14.6668L16.082 12.6668C15.6999 12.3807 15.231 12.2345 14.7539 12.2527C14.2768 12.2709 13.8205 12.4524 13.4612 12.7668L12.3695 13.8002C10.0945 13.2835 6.82786 10.3335 6.66536 8.15851L7.74453 7.02101C8.05385 6.65994 8.23036 6.20394 8.24476 5.72872C8.25916 5.25349 8.11058 4.78764 7.8237 4.40851L5.83203 1.88767C5.81125 1.85996 5.78588 1.83601 5.75703 1.81684C5.53699 1.64622 5.28498 1.52144 5.01589 1.44987C4.7468 1.37831 4.4661 1.36141 4.19036 1.40017C2.05703 1.75017 0.832031 2.92517 0.832031 4.66684C0.832031 8.64509 2.41238 12.4604 5.22543 15.2734C8.03848 18.0865 11.8538 19.6668 15.832 19.6668ZM4.3237 2.22934C4.38335 2.22521 4.44321 2.22521 4.50286 2.22934C4.75962 2.23031 5.00985 2.31033 5.21953 2.45851L7.16536 4.91684C7.33447 5.14172 7.42277 5.41707 7.41596 5.69836C7.40916 5.97964 7.30765 6.2504 7.12786 6.46684L5.94453 7.71684C5.87259 7.79368 5.83239 7.89491 5.83203 8.00017C5.83203 10.6835 9.70286 14.2085 12.432 14.6668C12.4954 14.6773 12.5604 14.673 12.6218 14.6542C12.6833 14.6354 12.7395 14.6026 12.7862 14.5585L14.0362 13.3877C14.251 13.2044 14.5216 13.0993 14.8038 13.0895C15.086 13.0796 15.3633 13.1657 15.5904 13.3335L18.0695 15.2835C18.2564 15.5421 18.3342 15.8639 18.2862 16.1793C18.082 17.3877 17.4987 18.8335 15.832 18.8335C12.0748 18.8335 8.47145 17.341 5.81468 14.6842C3.15792 12.0274 1.66536 8.42407 1.66536 4.66684C1.66536 3.00017 3.1112 2.41684 4.3237 2.22934Z" fill="#444444" stroke="#444444" stroke-width="0.4"/>
</svg>
