<svg width="26" height="26" viewBox="0 0 26 26" fill="none" xmlns="http://www.w3.org/2000/svg">
<path d="M1.85547 6.5H24.1412" stroke="black" stroke-linecap="round" stroke-linejoin="round"/>
<path d="M4.64062 6.5H21.3549V23.2143C21.3549 23.7068 21.1592 24.1793 20.811 24.5275C20.4627 24.8757 19.9903 25.0714 19.4978 25.0714H6.49777C6.00522 25.0714 5.53285 24.8757 5.18456 24.5275C4.83629 24.1793 4.64062 23.7068 4.64062 23.2143V6.5Z" stroke="black" stroke-linecap="round" stroke-linejoin="round"/>
<path d="M8.35547 6.50014V5.57157C8.35547 4.34021 8.84462 3.15927 9.71532 2.28857C10.586 1.41787 11.767 0.928711 12.9983 0.928711C14.2297 0.928711 15.4106 1.41787 16.2813 2.28857C17.152 3.15927 17.6412 4.34021 17.6412 5.57157V6.50014" stroke="black" stroke-linecap="round" stroke-linejoin="round"/>
<path d="M10.2109 12.0742V19.5057" stroke="black" stroke-linecap="round" stroke-linejoin="round"/>
<path d="M15.7852 12.0742V19.5057" stroke="black" stroke-linecap="round" stroke-linejoin="round"/>
</svg>
